<svg xmlns="http://www.w3.org/2000/svg" width="414.254" height="326.143" viewBox="0 0 414.254 326.143">
  <g id="_9ed68cea5a7efd68006b5a371a4f27d9" data-name="9ed68cea5a7efd68006b5a371a4f27d9" transform="translate(-10 -114.221)">
    <g id="Group_8" data-name="Group 8" transform="translate(10 114.221)">
      <path id="Path_14" data-name="Path 14" d="M288.862-396.475l-2.274.326v17.538l-4.383,1.217-4.383,1.217-4.307-7.634c-2.435-4.143-4.629-7.55-4.954-7.55-3.246,0-26.55,13.641-26.631,15.67a67.976,67.976,0,0,0,4.058,7.55,74.331,74.331,0,0,1,4.058,7.389,14.588,14.588,0,0,1-2.925,3.572l-2.925,3.005-7.55-4.383c-4.223-2.435-7.795-4.383-7.955-4.383-1.7,0-15.184,23.545-15.184,26.47,0,.566,3.331,2.925,7.389,5.2,6.738,3.9,7.309,4.383,6.818,6.252-.245,1.137-.731,3.086-.976,4.384l-.406,2.354h-17.7l-.473,2.194c-.812,3.166-.812,19.242-.08,24.762l.651,4.709h8.932c4.87,0,8.852.08,8.852.161,0,.161.566,1.949,1.217,4.058l1.137,3.817-7.469,4.223c-4.143,2.354-7.55,4.3-7.714,4.464-.651.486,5.115,11.612,9.092,17.618,7.309,10.961,5.685,10.394,14.533,5.2l7.71-4.455,2.925,3.005,2.925,2.925-4.058,7.063a54.428,54.428,0,0,0-4.058,7.875c0,1.949,23.224,15.509,26.47,15.509.406,0,2.68-3.411,5.034-7.55l4.223-7.634,3.9.977,3.817.972.245,9.012.245,8.932,7.634.571c7.063.566,17.7.08,22.167-.976,1.7-.406,1.788-.731,1.788-9.177v-8.771l3.411-.812a11.549,11.549,0,0,1,3.978-.566c.245.245,2.274,3.492,4.464,7.309s4.464,6.9,5.034,6.9c3.086,0,26.145-13.641,26.145-15.429a57.731,57.731,0,0,0-4.058-7.714,83.062,83.062,0,0,1-4.058-7.634c0-.812,4.384-4.954,5.2-4.954a58.66,58.66,0,0,1,7.96,4.223l7.309,4.223L376-246.1c3.166-3.817,9.177-14.047,11.612-19.567l2.109-4.709-1.868-1.137c-.976-.566-4.464-2.68-7.714-4.548-4.629-2.6-5.846-3.737-5.44-4.709a23.31,23.31,0,0,0,.976-3.652l.486-2.194h8.767c4.87,0,9.012-.326,9.257-.812.812-1.382,1.463-19.648.892-25.413l-.651-5.44H376.811l-.892-3.331a12.559,12.559,0,0,1-.566-4.3c.161-.486,3.492-2.68,7.389-4.789,3.817-2.194,6.983-4.3,6.983-4.789,0-2.921-12.178-24.682-14.7-26.225-.406-.325-4.062,1.382-8.12,3.737l-7.389,4.143-2.76-2.68c-1.543-1.462-2.76-3.005-2.76-3.411a73.9,73.9,0,0,1,4.058-7.634c3.411-5.766,3.978-7.144,3.086-8.12-2.76-3.327-22.492-14.858-25.413-14.858-.486,0-2.76,3.331-5.115,7.389-2.841,4.87-4.709,7.224-5.44,6.9-.566-.161-2.435-.651-3.978-.976l-2.925-.486v-8.852c0-5.846-.326-8.932-.976-9.338C316.224-396.636,292.189-397.126,288.862-396.475Zm25.088,41.734c5.766,1.378,16.321,6.658,20.949,10.475a55.669,55.669,0,0,1,17.864,28.013c2.6,9.989,1.382,24.276-2.841,34.1-6.091,14.127-20.624,26.145-36.539,30.122-7.063,1.788-21.03,1.217-28.419-1.217a52.715,52.715,0,0,1-33.694-33.779c-10.149-30.042,8.932-62.113,40.6-68.284A59.549,59.549,0,0,1,313.95-354.741Z" transform="translate(-124.035 396.779)" fill="#fff"/>
      <path id="Path_15" data-name="Path 15" d="M631.767-78.389a136.841,136.841,0,0,1-12.584,20.053l-1.623,2.029,54.969.406L727.5-55.5l.245,61.462.161,61.546h28.419V-.932c0-47.58-.245-69.341-.892-71.615-1.217-4.223-6.658-9.663-10.881-10.881-2.194-.571-20.053-.892-56.592-.892h-53.43Z" transform="translate(-360.739 216.399)" fill="#fff"/>
      <path id="Path_16" data-name="Path 16" d="M55.712-51.761c-5.44,1.378-17.944,6.818-17.944,7.795,0,.245,1.137,3.492,2.435,7.309a61.868,61.868,0,0,1,2.435,7.634c0,.406-.892,1.3-1.949,1.949-1.868,1.217-2.274,1.137-8.526-1.949a48.762,48.762,0,0,0-7.3-3.335c-1.217,0-8.12,10.881-10.23,16.16a48.016,48.016,0,0,0-2.519,7.955l-.486,3.086,6.983,3.411C25.019,1.42,25.589,1.906,25.589,4.1c0,2.274-.325,2.515-7.795,4.954L10,11.65l.566,4.223c.731,5.36,4.464,16.4,7.228,21.03L19.9,40.639,26.968,38.2a74.125,74.125,0,0,1,7.955-2.354c.486,0,1.382.892,1.949,1.868.892,1.708.651,2.68-2.354,8.687l-3.411,6.823,2.68,2.274c5.115,4.223,20.3,11.206,24.441,11.206.325,0,2.109-3.166,3.9-6.983,3.166-6.818,3.246-6.9,5.846-6.658s2.76.486,5.115,7.309l2.435,7.144H78.36A44.686,44.686,0,0,0,87.127,65.9c6.172-1.7,17.213-6.818,17.213-7.955,0-.406-1.057-3.817-2.354-7.634l-2.354-6.983,1.868-1.788,1.788-1.7,7.063,3.492,7.063,3.492,2.354-2.841c3.246-3.9,7.634-12.343,9.663-18.595.976-2.841,1.7-5.36,1.7-5.521,0-.08-3.331-1.868-7.389-3.9-7.063-3.572-7.389-3.817-6.818-5.926.325-1.217.651-2.274.731-2.435.161-.08,3.331-1.217,7.063-2.515l6.818-2.274-.161-4.383c-.325-7.309-6.983-24.276-9.583-24.276A70.713,70.713,0,0,0,114-23.494l-6.818,2.274L105.8-23.088c-1.382-1.708-1.3-2.029,1.868-8.932L111-39.164l-2.76-2.274c-3.733-3.166-13.966-8.361-19.487-9.9-2.515-.731-4.709-1.3-4.87-1.3A71.058,71.058,0,0,0,80.068-45.5c-3.492,7.063-3.572,7.228-6.007,6.738-2.274-.486-2.68-1.057-4.87-7.634-2.274-6.9-2.354-7.063-4.87-6.983A45.345,45.345,0,0,0,55.712-51.761Zm28.744,31.5c15.184,7.469,21.6,26.225,14.047,41A34.871,34.871,0,0,1,83.8,34.709c-4.383,2.109-5.926,2.354-12.749,2.354-6.658,0-8.361-.325-12.343-2.194C37.032,24.72,34.356-4.51,53.843-17.906A30.876,30.876,0,0,1,84.456-20.26Z" transform="translate(-10 198.542)" fill="#fff"/>
      <path id="Path_17" data-name="Path 17" d="M327.32,96.33v47.986h28.414V56.138l-5.521-.976a92,92,0,0,1-12.829-3.411c-3.978-1.463-7.875-2.76-8.606-3.005C327.4,48.344,327.32,50.943,327.32,96.33Z" transform="translate(-193.186 139.601)" fill="#fff"/>
      <path id="Path_18" data-name="Path 18" d="M283.14,310.183c0,9.663.245,12.829,1.3,15.023,2.68,5.605-8.771,5.2,148.1,5.2,156.216,0,145.5.326,148.18-4.874.892-1.788,1.217-5.275,1.217-15.023V297.92H461.848l-.245,4.223-.245,4.3-26.715.245c-19,.161-27.036-.08-27.768-.731-.647-.566-1.137-2.435-1.137-4.464v-3.572H283.14Zm279.148.085c.571.571.977,2.274.977,3.9,0,4.138-1.137,4.87-7.469,4.87-5.846,0-7.144-.892-7.144-4.87s1.3-4.874,7.144-4.874C559.038,309.291,561.718,309.7,562.288,310.267Z" transform="translate(-167.681 -4.265)" fill="#fff"/>
    </g>
  </g>
</svg>
